<svg width="122" height="27" viewBox="0 0 122 27" fill="none" xmlns="http://www.w3.org/2000/svg">
<path d="M14.74 13.112C16.156 13.376 17.32 14.084 18.232 15.236C19.144 16.388 19.6 17.708 19.6 19.196C19.6 20.54 19.264 21.728 18.592 22.76C17.944 23.768 16.996 24.56 15.748 25.136C14.5 25.712 13.024 26 11.32 26H0.484V0.872H10.852C12.556 0.872 14.02 1.148 15.244 1.7C16.492 2.252 17.428 3.02 18.052 4.004C18.7 4.988 19.024 6.104 19.024 7.352C19.024 8.816 18.628 10.04 17.836 11.024C17.068 12.008 16.036 12.704 14.74 13.112ZM5.524 11.24H10.132C11.332 11.24 12.256 10.976 12.904 10.448C13.552 9.896 13.876 9.116 13.876 8.108C13.876 7.1 13.552 6.32 12.904 5.768C12.256 5.216 11.332 4.94 10.132 4.94H5.524V11.24ZM10.6 21.896C11.824 21.896 12.772 21.608 13.444 21.032C14.14 20.456 14.488 19.64 14.488 18.584C14.488 17.504 14.128 16.664 13.408 16.064C12.688 15.44 11.716 15.128 10.492 15.128H5.524V21.896H10.6ZM27.9368 22.004H36.2168V26H22.8968V0.872H27.9368V22.004ZM50.3643 26.252C48.0123 26.252 45.8523 25.7 43.8843 24.596C41.9163 23.492 40.3563 21.968 39.2043 20.024C38.0523 18.056 37.4763 15.836 37.4763 13.364C37.4763 10.916 38.0523 8.72 39.2043 6.776C40.3563 4.808 41.9163 3.272 43.8843 2.168C45.8523 1.064 48.0123 0.512 50.3643 0.512C52.7403 0.512 54.9003 1.064 56.8443 2.168C58.8123 3.272 60.3603 4.808 61.4883 6.776C62.6403 8.72 63.2163 10.916 63.2163 13.364C63.2163 15.836 62.6403 18.056 61.4883 20.024C60.3603 21.968 58.8123 23.492 56.8443 24.596C54.8763 25.7 52.7163 26.252 50.3643 26.252ZM50.3643 21.752C51.8763 21.752 53.2083 21.416 54.3603 20.744C55.5123 20.048 56.4123 19.064 57.0603 17.792C57.7083 16.52 58.0323 15.044 58.0323 13.364C58.0323 11.684 57.7083 10.22 57.0603 8.972C56.4123 7.7 55.5123 6.728 54.3603 6.056C53.2083 5.384 51.8763 5.048 50.3643 5.048C48.8523 5.048 47.5083 5.384 46.3323 6.056C45.1803 6.728 44.2803 7.7 43.6323 8.972C42.9843 10.22 42.6603 11.684 42.6603 13.364C42.6603 15.044 42.9843 16.52 43.6323 17.792C44.2803 19.064 45.1803 20.048 46.3323 20.744C47.5083 21.416 48.8523 21.752 50.3643 21.752ZM77.9099 26.252C75.5579 26.252 73.3979 25.7 71.4299 24.596C69.4619 23.492 67.9019 21.968 66.7499 20.024C65.5979 18.056 65.0219 15.836 65.0219 13.364C65.0219 10.916 65.5979 8.72 66.7499 6.776C67.9019 4.808 69.4619 3.272 71.4299 2.168C73.3979 1.064 75.5579 0.512 77.9099 0.512C80.2859 0.512 82.4459 1.064 84.3899 2.168C86.3579 3.272 87.9059 4.808 89.0339 6.776C90.1859 8.72 90.7619 10.916 90.7619 13.364C90.7619 15.836 90.1859 18.056 89.0339 20.024C87.9059 21.968 86.3579 23.492 84.3899 24.596C82.4219 25.7 80.2619 26.252 77.9099 26.252ZM77.9099 21.752C79.4219 21.752 80.7539 21.416 81.9059 20.744C83.0579 20.048 83.9579 19.064 84.6059 17.792C85.2539 16.52 85.5779 15.044 85.5779 13.364C85.5779 11.684 85.2539 10.22 84.6059 8.972C83.9579 7.7 83.0579 6.728 81.9059 6.056C80.7539 5.384 79.4219 5.048 77.9099 5.048C76.3979 5.048 75.0539 5.384 73.8779 6.056C72.7259 6.728 71.8259 7.7 71.1779 8.972C70.5299 10.22 70.2059 11.684 70.2059 13.364C70.2059 15.044 70.5299 16.52 71.1779 17.792C71.8259 19.064 72.7259 20.048 73.8779 20.744C75.0539 21.416 76.3979 21.752 77.9099 21.752ZM121.188 0.872V26H116.148V9.656L109.416 26H105.6L98.8315 9.656V26H93.7915V0.872H99.5155L107.508 19.556L115.5 0.872H121.188Z" fill="white"/>
</svg>
